<svg xmlns="http://www.w3.org/2000/svg" width="1024" height="1024" viewBox="0 0 1024 1024">
<g fill="#bef264">
<path d="M 333.57 189.00 C333.54,219.81 333.27,228.00 332.27,228.00 C331.95,228.00 331.71,228.14 331.52,228.08 C330.73,227.86 330.85,224.47 330.99,195.77 C331.07,178.87 330.88,164.61 330.56,164.09 C330.19,163.50 328.77,163.50 326.74,164.10 C324.96,164.62 304.15,170.46 280.50,177.07 C256.85,183.69 236.75,189.32 235.83,189.59 C234.55,189.97 234.00,191.84 233.46,197.59 C233.07,201.71 232.53,204.86 232.25,204.58 C231.97,204.31 230.50,204.73 228.97,205.52 C225.23,207.45 225.00,206.66 225.00,191.95 L 225.00 180.06 L 230.25 178.57 C236.19,176.89 301.22,158.55 319.50,153.40 C326.10,151.54 331.97,150.02 332.55,150.01 C333.27,150.00 333.59,162.40 333.57,189.00 ZM 190.50 329.49 C182.07,331.27 177.48,331.27 169.37,329.51 C162.13,327.93 158.31,326.09 153.46,321.83 C147.87,316.93 146.99,314.36 147.09,303.30 C147.14,297.15 147.46,294.43 147.94,296.00 C149.04,299.61 152.80,306.76 153.99,307.49 C155.69,308.54 155.12,303.79 153.30,301.78 C152.37,300.75 154.27,301.51 157.53,303.48 C164.41,307.62 167.76,308.62 177.84,309.58 C182.45,310.02 184.68,310.59 183.84,311.12 C183.10,311.59 182.92,311.98 183.44,311.98 C183.96,311.99 183.51,312.65 182.44,313.44 C180.87,314.61 180.72,315.23 181.64,316.69 C182.55,318.14 183.92,318.46 188.49,318.30 C201.72,317.83 216.92,306.25 221.64,293.05 C222.86,289.64 222.91,289.80 222.96,297.43 C222.99,303.50 222.51,306.38 220.92,309.67 C216.72,318.34 203.96,326.65 190.50,329.49 ZM 329.31 290.74 L 321.13 296.78 L 310.31 296.82 C301.16,296.86 298.61,296.50 293.65,294.48 C280.37,289.06 277.00,283.73 277.00,268.15 L 277.00 257.93 L 281.28 263.21 C287.79,271.25 296.45,275.18 309.50,276.03 C315.00,276.39 318.71,276.76 317.75,276.84 C316.79,276.93 316.00,277.38 316.00,277.84 C316.00,278.30 314.88,279.19 313.50,279.82 C310.26,281.30 310.30,283.79 313.58,284.61 C324.58,287.37 342.12,277.84 349.23,265.25 C350.86,262.36 352.60,260.25 353.10,260.56 C353.59,260.87 354.00,263.32 354.00,266.01 L 354.00 270.90 L 345.75 277.81 C341.21,281.60 333.82,287.43 329.31,290.74 ZM 357.72 147.14 C356.95,147.91 356.06,149.20 355.74,150.02 C355.42,150.83 355.12,145.65 355.08,138.49 C355.04,131.34 354.55,123.93 354.01,122.03 C351.83,114.43 357.52,116.99 361.50,125.40 C363.57,129.78 364.00,132.19 364.00,139.33 L 364.00 147.96 L 361.56 146.85 C359.66,145.98 358.81,146.04 357.72,147.14 ZM 203.37 186.75 C202.67,189.37 201.08,189.58 199.08,187.32 C197.22,185.22 196.44,171.77 197.87,166.48 C199.09,161.95 204.45,153.00 205.93,153.00 C206.49,153.00 206.29,154.76 205.46,157.13 C204.51,159.82 204.00,165.29 203.99,172.88 C203.98,179.27 203.70,185.51 203.37,186.75 ZM 279.95 264.91 C281.52,267.85 282.19,267.52 280.82,264.50 C280.19,263.12 279.49,262.18 279.26,262.41 C279.03,262.64 279.34,263.77 279.95,264.91 Z" fill="rgba(6,54,65,1)"/>
<path d="M 5.49 402.75 C6.63,405.38 7.48,406.00 9.89,406.00 C11.54,406.00 13.18,405.51 13.55,404.92 C13.95,404.27 13.47,403.92 12.36,404.03 C6.98,404.60 6.21,401.82 11.25,400.05 C14.12,399.05 14.66,399.15 15.87,400.96 C17.24,402.99 20.59,403.64 22.50,402.23 C23.05,401.83 24.10,400.33 24.84,398.91 C26.31,396.05 33.70,392.00 37.44,392.00 C38.76,392.00 41.96,391.09 44.56,389.97 C47.16,388.86 51.91,387.79 55.12,387.60 C58.36,387.41 62.10,386.51 63.52,385.58 C66.58,383.57 87.70,382.05 86.55,383.92 C86.10,384.65 87.83,385.00 91.86,385.00 C95.63,385.00 97.98,384.56 98.24,383.79 C98.48,383.05 100.26,382.68 102.89,382.84 C112.38,383.40 113.49,380.58 105.75,375.58 C97.57,370.30 92.68,364.99 91.16,359.77 C90.43,357.23 90.01,354.33 90.24,353.33 C90.51,352.13 91.08,352.98 91.87,355.76 C95.38,368.10 109.53,374.51 133.00,374.41 C152.66,374.33 177.76,369.39 206.56,359.95 C268.39,339.68 324.41,306.63 379.00,258.20 L 388.50 249.77 L 379.41 258.64 C374.40,263.51 367.95,269.52 365.07,272.00 C362.19,274.48 357.50,278.75 354.65,281.50 C351.80,284.25 347.10,288.30 344.21,290.50 C341.32,292.70 335.86,297.04 332.07,300.14 C328.28,303.24 323.79,306.60 322.09,307.61 C320.39,308.61 319.00,309.74 319.00,310.12 C319.00,310.50 316.41,312.50 313.25,314.57 C310.09,316.64 305.45,320.22 302.94,322.52 C300.44,324.83 296.61,327.29 294.44,327.99 C287.94,330.10 283.18,332.85 282.54,334.88 C282.16,336.08 280.01,337.42 276.76,338.48 C270.64,340.49 262.40,344.54 261.51,345.99 C260.06,348.34 264.44,347.99 272.75,345.09 C277.62,343.39 283.64,342.00 286.14,342.00 C289.35,342.00 291.20,341.44 292.42,340.09 C293.37,339.04 295.32,337.89 296.76,337.52 C298.19,337.16 300.67,335.77 302.26,334.44 C304.15,332.85 306.43,331.99 308.83,331.96 C314.22,331.91 324.17,329.59 327.04,327.71 C328.42,326.81 332.23,325.80 335.52,325.47 C338.81,325.14 344.04,323.72 347.15,322.30 C351.21,320.45 353.58,319.93 355.61,320.44 L 358.42 321.14 L 354.46 324.60 L 350.50 328.05 L 356.00 324.92 C359.02,323.20 361.95,321.43 362.50,320.98 C363.05,320.54 365.30,319.88 367.50,319.51 C369.70,319.14 373.20,318.20 375.27,317.42 C377.34,316.64 380.14,316.00 381.49,316.00 C383.14,316.00 383.77,315.56 383.42,314.64 C383.10,313.82 383.99,312.84 385.70,312.14 C391.89,309.60 418.80,306.38 440.68,305.57 C449.11,305.26 450.77,305.44 450.32,306.60 C450.09,307.20 449.91,307.59 450.04,307.76 C450.27,308.08 451.55,307.64 455.50,306.37 C466.51,302.82 479.81,301.26 484.06,303.03 C486.38,303.99 487.63,303.98 490.00,303.00 C491.65,302.32 493.00,301.36 493.00,300.88 C493.00,299.63 492.27,299.78 489.53,301.57 C487.69,302.77 486.66,302.89 485.11,302.06 C484.00,301.47 480.36,300.69 477.02,300.34 C473.69,300.00 471.15,299.52 471.38,299.29 C472.35,298.32 510.00,298.15 510.00,299.11 C510.00,299.67 510.45,299.84 511.00,299.50 C511.66,299.09 512.00,247.99 512.00,149.44 L 512.00 303.00 C512.00,302.45 511.55,302.00 511.00,302.00 C510.45,302.00 510.00,302.45 510.00,303.00 C510.00,303.55 510.45,304.00 511.00,304.00 C511.55,304.00 512.00,303.55 512.00,303.00 L 512.00 512.00 L 0.00 512.00 L 0.00 3.89 L 0.25 201.24 C0.49,391.98 0.59,402.49 2.25,402.81 C3.39,403.03 4.01,402.51 4.04,401.32 C4.06,400.19 4.61,400.72 5.49,402.75 ZM 159.68 361.96 C148.48,363.45 136.59,363.12 128.50,361.11 C120.08,359.01 116.46,357.19 112.56,353.09 C110.04,350.44 109.59,349.12 109.38,343.75 C109.15,338.01 109.19,337.87 109.89,342.00 C111.00,348.56 113.65,352.33 118.60,354.38 C127.23,357.95 133.42,358.98 146.34,358.99 C157.33,359.00 162.00,358.43 178.84,355.05 C189.65,352.88 203.68,349.55 210.00,347.64 C227.49,342.38 257.63,329.47 266.50,323.44 C273.66,318.57 284.41,312.26 288.36,310.62 C290.94,309.54 292.04,308.54 291.67,307.59 C291.32,306.67 292.88,304.98 296.04,302.83 C298.74,301.00 300.96,298.96 300.97,298.30 C300.99,297.77 299.18,296.65 296.70,295.59 C300.06,296.64 303.19,296.85 310.31,296.82 L 320.91 296.78 C318.87,298.16 317.49,299.00 317.15,299.00 C316.61,299.00 316.02,299.40 315.83,299.88 C315.65,300.36 311.67,303.20 307.00,306.18 C261.41,335.29 207.89,355.55 159.68,361.96 ZM 357.72 147.14 C358.81,146.04 359.66,145.98 361.56,146.85 L 364.00 147.96 L 364.00 139.33 C364.00,132.25 363.57,129.82 361.55,125.51 C361.56,125.54 361.58,125.57 361.59,125.60 C364.13,130.96 364.19,131.59 364.31,153.29 C364.46,178.95 363.39,185.87 359.34,185.63 C358.05,185.56 356.99,185.05 356.99,184.50 C356.98,183.95 356.53,184.18 356.00,185.00 C355.36,185.99 355.03,176.06 355.02,155.99 C355.01,138.90 354.56,123.97 354.01,122.03 C354.55,123.93 355.04,131.34 355.08,138.49 C355.12,145.65 355.42,150.83 355.74,150.02 C356.06,149.20 356.95,147.91 357.72,147.14 ZM 343.41 272.81 C334.92,281.35 322.23,286.78 313.58,284.61 C310.30,283.79 310.26,281.30 313.50,279.82 C314.88,279.19 316.00,278.30 316.00,277.84 C316.00,277.38 316.79,276.93 317.75,276.84 C318.71,276.76 315.00,276.39 309.50,276.03 C308.47,275.97 307.46,275.88 306.48,275.77 C318.03,276.75 330.56,273.17 341.07,265.45 L 345.94 261.87 L 344.48 266.69 C343.68,269.33 343.02,271.89 343.01,272.37 C343.01,272.76 343.15,272.89 343.41,272.81 ZM 160.61 305.24 C164.03,307.02 168.20,308.32 173.03,309.00 C187.55,311.06 203.02,306.18 213.75,296.15 C215.54,294.48 217.00,293.30 217.00,293.53 C217.00,294.14 212.95,301.31 211.81,302.70 C211.27,303.37 210.00,305.54 208.99,307.53 L 207.14 311.15 L 210.32 308.71 C214.17,305.75 219.44,298.60 221.37,293.78 C216.36,306.68 201.48,317.84 188.49,318.30 C183.92,318.46 182.55,318.14 181.64,316.69 C180.72,315.23 180.87,314.61 182.44,313.44 C183.51,312.65 183.96,311.99 183.44,311.98 C182.92,311.98 183.10,311.59 183.84,311.12 C184.68,310.59 182.45,310.02 177.84,309.58 C169.38,308.78 165.65,307.94 160.61,305.24 ZM 231.95 233.78 C231.28,235.66 229.55,237.70 227.89,238.56 L 225.00 240.05 L 225.00 191.95 C225.00,206.66 225.23,207.45 228.97,205.52 C230.50,204.73 231.97,204.31 232.25,204.58 C232.53,204.86 233.07,201.71 233.46,197.59 C234.00,191.84 234.55,189.97 235.83,189.59 C235.84,189.59 235.84,189.59 235.85,189.59 C234.53,190.06 234.22,193.18 233.71,210.27 C233.38,221.51 232.60,231.96 231.95,233.78 ZM 148.51 315.81 C147.06,312.82 146.51,309.05 146.21,302.77 C145.88,295.99 145.40,293.24 144.62,293.69 C144.00,294.05 144.20,293.48 145.05,292.42 C145.90,291.36 147.17,288.25 147.85,285.50 C148.54,282.75 150.32,278.74 151.80,276.58 C157.27,268.63 170.32,260.57 179.72,259.35 C182.35,259.00 185.15,258.22 185.94,257.61 C187.04,256.76 187.21,256.80 186.63,257.75 C186.22,258.44 186.36,259.00 186.94,259.00 C187.52,259.00 188.00,259.39 188.00,259.86 C188.00,260.33 185.67,261.00 182.82,261.33 C171.63,262.66 156.29,272.64 152.08,281.33 C147.49,290.82 150.63,299.47 159.50,304.63 C158.87,304.27 158.22,303.89 157.53,303.48 C154.27,301.51 152.37,300.75 153.30,301.78 C155.12,303.79 155.69,308.54 153.99,307.49 C152.80,306.76 149.04,299.61 147.94,296.00 C147.46,294.43 147.14,297.15 147.09,303.30 C147.03,309.50 147.29,313.04 148.51,315.81 ZM 203.37 186.75 C203.70,185.51 203.98,179.27 203.99,172.88 C204.00,165.29 204.51,159.82 205.46,157.13 C206.03,155.50 206.30,154.16 206.24,153.48 C206.36,154.03 206.12,155.24 205.46,157.13 C204.30,160.39 204.00,167.59 204.00,191.63 C204.00,221.46 203.96,222.00 201.98,222.00 C198.27,222.00 197.57,217.83 197.21,193.35 C197.10,186.11 197.06,180.70 197.17,176.50 C197.33,181.38 198.03,186.14 199.08,187.32 C201.08,189.58 202.67,189.37 203.37,186.75 ZM 303.82 300.50 C304.92,301.63 313.84,300.23 316.24,298.55 C318.32,297.09 318.03,297.00 311.33,297.00 C306.15,297.00 304.07,297.38 303.68,298.40 C303.38,299.17 303.44,300.12 303.82,300.50 ZM 467.71 302.36 C466.45,302.67 462.74,303.20 459.46,303.52 L 453.50 304.11 L 456.50 302.36 C460.29,300.14 470.00,298.87 470.00,300.59 C470.00,301.25 468.97,302.04 467.71,302.36 ZM 283.08 265.27 C282.46,264.62 281.86,263.93 281.28,263.21 L 277.47 258.50 C277.97,254.38 278.85,252.00 279.99,252.00 C280.35,252.00 280.46,253.34 280.22,254.99 C279.65,258.86 280.58,262.25 283.08,265.27 ZM 279.95 264.91 C279.34,263.77 279.03,262.64 279.26,262.41 C279.49,262.18 280.19,263.12 280.82,264.50 C282.19,267.52 281.52,267.85 279.95,264.91 ZM 330.89 218.59 C330.81,213.84 330.83,206.76 330.91,196.27 C331.04,179.11 330.88,164.64 330.56,164.09 C330.88,164.64 331.07,178.88 330.99,195.77 C330.94,206.57 330.89,213.78 330.89,218.59 ZM 277.00 268.78 C277.04,274.65 277.58,279.03 279.01,282.51 C277.42,279.14 277.03,276.55 277.00,268.78 ZM 298.05 274.18 C294.19,273.08 290.83,271.51 287.85,269.42 C289.31,270.38 290.99,271.31 292.87,272.20 C294.54,272.98 296.28,273.65 298.05,274.18 ZM 333.57 189.43 C333.55,213.59 333.42,223.06 332.88,226.30 C333.39,222.63 333.55,212.37 333.57,189.43 ZM 202.84 156.39 C201.42,158.54 199.86,161.38 198.82,163.82 C199.55,161.72 200.57,159.92 201.95,157.73 C202.26,157.25 202.56,156.80 202.84,156.39 ZM 355.72 117.86 C353.90,116.84 352.86,118.02 354.01,122.03 C352.85,117.97 353.89,116.80 355.72,117.86 ZM 222.11 291.80 C222.90,289.78 222.92,290.85 222.96,297.43 C222.92,290.92 222.88,289.84 222.11,291.80 Z" fill="rgba(20,100,111,1)"/>
<path d="M 356.96 276.85 C399.99,241.64 428.26,207.53 432.96,184.75 C435.99,170.02 425.78,158.63 408.28,157.23 C404.80,156.95 401.74,156.39 401.49,155.99 C401.24,155.58 403.72,154.95 406.99,154.58 C413.56,153.84 418.35,154.81 426.57,158.57 C429.49,159.91 432.49,161.00 433.24,161.00 C433.99,161.00 435.03,161.39 435.55,161.87 C436.09,162.36 440.12,162.32 444.87,161.76 C451.25,161.02 453.43,161.07 454.00,162.00 C454.45,162.73 455.61,162.94 456.92,162.52 C458.22,162.11 459.74,162.37 460.70,163.17 C461.71,164.01 465.12,164.52 469.90,164.56 C476.15,164.61 477.76,164.29 479.01,162.75 C481.39,159.80 487.88,159.39 492.54,161.89 C497.42,164.51 500.59,164.55 504.68,162.05 C506.93,160.68 507.99,160.46 508.27,161.30 C508.50,161.96 509.43,161.06 510.34,159.30 C511.85,156.40 512.00,148.84 512.00,78.05 L 512.00 149.44 C512.00,247.99 511.66,299.09 511.00,299.50 C510.45,299.84 510.00,299.67 510.00,299.11 C510.00,298.15 472.35,298.32 471.38,299.29 C471.15,299.52 473.69,300.00 477.02,300.34 C480.36,300.69 484.00,301.47 485.11,302.06 C486.66,302.89 487.69,302.77 489.53,301.57 C492.27,299.78 493.00,299.63 493.00,300.88 C493.00,301.36 491.65,302.32 490.00,303.00 C487.63,303.98 486.38,303.99 484.06,303.03 C479.81,301.26 466.51,302.82 455.50,306.37 C451.55,307.64 450.27,308.08 450.04,307.76 C449.91,307.59 450.09,307.20 450.32,306.60 C450.77,305.44 449.11,305.26 440.68,305.57 C418.80,306.38 391.89,309.60 385.70,312.14 C383.99,312.84 383.10,313.82 383.42,314.64 C383.77,315.56 383.14,316.00 381.49,316.00 C380.14,316.00 377.34,316.64 375.27,317.42 C373.20,318.20 369.70,319.14 367.50,319.51 C365.30,319.88 363.05,320.54 362.50,320.98 C361.95,321.43 359.02,323.20 356.00,324.92 L 350.50 328.05 L 354.46 324.60 L 358.42 321.14 L 355.61 320.44 C353.58,319.93 351.21,320.45 347.15,322.30 C344.04,323.72 338.81,325.14 335.52,325.47 C332.23,325.80 328.42,326.81 327.04,327.71 C324.17,329.59 314.22,331.91 308.83,331.96 C306.43,331.99 304.15,332.85 302.26,334.44 C300.67,335.77 298.19,337.16 296.76,337.52 C295.32,337.89 293.37,339.04 292.42,340.09 C291.20,341.44 289.35,342.00 286.14,342.00 C283.64,342.00 277.62,343.39 272.75,345.09 C264.44,347.99 260.06,348.34 261.51,345.99 C262.40,344.54 270.64,340.49 276.76,338.48 C280.01,337.42 282.16,336.08 282.54,334.88 C283.18,332.85 287.94,330.10 294.44,327.99 C296.61,327.29 300.44,324.83 302.94,322.52 C305.45,320.22 310.09,316.64 313.25,314.57 C316.41,312.50 319.00,310.50 319.00,310.12 C319.00,309.74 320.39,308.61 322.09,307.61 C323.79,306.60 328.28,303.24 332.07,300.14 C335.86,297.04 341.32,292.70 344.21,290.50 C347.10,288.30 351.80,284.25 354.65,281.50 C357.50,278.75 362.19,274.48 365.07,272.00 C367.95,269.52 374.40,263.51 379.41,258.64 L 388.50 249.77 L 379.00 258.20 C371.68,264.69 364.34,270.91 356.96,276.85 ZM 5.49 402.75 C4.61,400.72 4.06,400.19 4.04,401.32 C4.01,402.51 3.39,403.03 2.25,402.81 C0.81,402.53 0.54,394.58 0.34,267.84 L 3.61 268.45 C7.70,269.22 15.47,267.70 21.78,264.90 C24.13,263.86 26.75,263.00 27.60,263.00 C28.45,263.00 29.84,262.30 30.69,261.46 C32.30,259.85 34.65,260.03 34.30,261.73 C34.01,263.12 43.46,261.30 48.88,258.92 C51.91,257.59 55.54,257.00 60.72,257.00 C66.34,257.00 68.85,256.54 70.85,255.16 C74.35,252.74 76.59,251.88 82.00,250.90 C91.51,249.16 92.97,248.74 94.09,247.39 C94.73,246.63 96.23,246.00 97.43,246.00 C98.63,246.00 100.49,245.34 101.56,244.53 C102.81,243.59 105.90,243.05 110.23,243.03 C117.32,243.00 124.07,240.98 127.56,237.85 C128.94,236.62 131.17,236.00 134.25,236.00 C136.79,236.00 140.14,235.48 141.68,234.85 C145.85,233.14 155.07,232.20 158.50,233.13 C160.38,233.64 163.72,233.43 167.47,232.55 C171.30,231.66 174.05,231.49 175.15,232.08 C178.20,233.71 182.08,233.07 186.34,230.21 C188.63,228.68 191.40,226.95 192.50,226.36 C195.37,224.83 196.03,219.32 196.83,190.50 C196.93,186.82 197.02,183.64 197.11,180.88 C197.09,184.32 197.14,188.41 197.21,193.35 C197.57,217.83 198.27,222.00 201.98,222.00 C203.96,222.00 204.00,221.46 204.00,191.63 C204.00,167.59 204.30,160.39 205.46,157.13 C204.26,160.53 204.00,170.09 204.00,211.63 C204.00,239.33 203.66,261.99 203.25,261.98 C202.84,261.97 199.66,261.55 196.18,261.05 C192.55,260.52 188.90,260.49 185.24,260.95 C186.88,260.61 188.00,260.19 188.00,259.86 C188.00,259.39 187.52,259.00 186.94,259.00 C186.36,259.00 186.22,258.44 186.63,257.75 C187.21,256.80 187.04,256.76 185.94,257.61 C185.15,258.22 182.35,259.00 179.72,259.35 C176.03,259.83 171.78,261.36 167.65,263.53 C171.78,261.36 176.02,259.82 179.72,259.33 C183.41,258.83 185.70,257.67 189.75,254.22 C194.76,249.96 195.00,249.53 195.00,244.88 C195.00,242.20 194.72,240.00 194.38,240.00 C193.15,240.00 169.21,258.64 154.50,271.05 C107.63,310.60 86.62,339.68 92.29,357.07 C92.14,356.64 92.00,356.21 91.87,355.76 C91.08,352.98 90.51,352.13 90.24,353.33 C90.01,354.33 90.43,357.23 91.16,359.77 C92.68,364.99 97.57,370.30 105.75,375.58 C113.49,380.58 112.38,383.40 102.89,382.84 C100.26,382.68 98.48,383.05 98.24,383.79 C97.98,384.56 95.63,385.00 91.86,385.00 C87.83,385.00 86.10,384.65 86.55,383.92 C87.70,382.05 66.58,383.57 63.52,385.58 C62.10,386.51 58.36,387.41 55.12,387.60 C51.91,387.79 47.16,388.86 44.56,389.97 C41.96,391.09 38.76,392.00 37.44,392.00 C33.70,392.00 26.31,396.05 24.84,398.91 C24.10,400.33 23.05,401.83 22.50,402.23 C20.59,403.64 17.24,402.99 15.87,400.96 C14.66,399.15 14.12,399.05 11.25,400.05 C6.21,401.82 6.98,404.60 12.36,404.03 C13.47,403.92 13.95,404.27 13.55,404.92 C13.18,405.51 11.54,406.00 9.89,406.00 C7.48,406.00 6.63,405.38 5.49,402.75 ZM 190.50 329.49 C203.96,326.65 216.72,318.34 220.92,309.67 C222.51,306.38 222.99,303.50 222.96,297.43 C222.91,289.65 222.89,289.57 221.60,293.19 C219.88,297.99 214.33,305.63 210.32,308.71 L 207.14 311.15 L 208.99 307.53 C210.00,305.54 211.27,303.37 211.81,302.70 C212.95,301.31 217.00,294.14 217.00,293.53 C217.00,293.30 215.54,294.48 213.75,296.15 C211.95,297.83 210.02,299.37 207.98,300.75 C212.15,297.46 220.27,289.02 220.72,287.33 C220.85,286.87 221.72,284.48 222.67,282.00 C224.20,278.02 224.44,271.91 224.79,228.75 L 225.00 202.24 L 225.00 240.05 L 227.89 238.56 C229.55,237.70 231.28,235.66 231.95,233.78 C232.60,231.96 233.38,221.51 233.71,210.27 C233.86,205.09 234.00,201.19 234.15,198.26 C234.15,198.44 234.16,198.63 234.16,198.82 C234.25,203.59 234.50,206.04 234.72,204.25 C234.95,202.46 235.55,201.00 236.06,201.00 C236.58,201.00 237.00,199.94 237.00,198.65 C237.00,194.67 239.80,193.22 249.00,192.47 C256.43,191.87 258.52,191.23 265.60,187.42 C278.51,180.47 316.23,168.11 324.75,168.04 C327.88,168.01 329.00,168.40 329.00,169.50 C329.00,170.32 329.45,171.00 330.00,171.00 C330.37,171.00 330.66,170.22 330.83,169.17 C330.95,174.94 330.99,185.03 330.91,196.27 C330.72,220.78 330.86,226.72 331.85,227.65 L 329.52 227.22 C311.15,223.91 288.76,234.38 281.87,249.50 C281.14,251.10 280.62,252.62 280.32,254.08 C280.41,252.88 280.28,252.00 279.99,252.00 C278.16,252.00 277.00,258.11 277.00,267.73 C277.00,276.55 277.37,279.12 279.13,282.77 C281.68,288.04 286.70,291.89 294.93,294.89 C296.84,295.59 298.55,296.39 299.66,297.07 C298.34,297.55 293.28,300.32 287.69,303.65 C281.53,307.30 269.98,313.77 262.00,318.02 C243.86,327.69 241.01,329.34 241.01,330.15 C241.00,331.25 254.14,326.95 260.33,323.83 C265.39,321.28 281.78,311.66 291.57,305.50 C293.24,304.45 295.89,302.78 297.63,301.69 C297.13,302.07 296.59,302.45 296.04,302.83 C292.88,304.98 291.32,306.67 291.67,307.59 C292.04,308.54 290.94,309.54 288.36,310.62 C284.41,312.26 273.66,318.57 266.50,323.44 C257.63,329.47 227.49,342.38 210.00,347.64 C203.68,349.55 189.65,352.88 178.84,355.05 C162.00,358.43 157.33,359.00 146.34,358.99 C133.42,358.98 127.23,357.95 118.60,354.38 C113.65,352.33 111.00,348.56 109.89,342.00 C109.19,337.87 109.15,338.01 109.38,343.75 C109.47,346.11 109.61,347.69 109.95,348.94 C109.58,347.78 109.37,346.39 109.21,344.56 C108.96,341.54 109.11,338.27 109.54,337.29 C109.97,336.30 110.25,335.16 110.16,334.75 C110.07,334.34 110.48,334.00 111.06,334.00 C111.64,334.00 111.84,333.55 111.50,333.00 C111.16,332.45 111.39,332.00 112.00,332.00 C112.61,332.00 112.84,331.55 112.50,331.00 C112.16,330.45 112.39,330.00 113.00,330.00 C113.61,330.00 113.84,329.55 113.50,329.00 C113.16,328.45 113.36,328.00 113.94,328.00 C114.52,328.00 115.00,327.33 115.00,326.50 C115.00,325.67 115.45,325.00 116.00,325.00 C116.55,325.00 117.00,324.33 117.00,323.50 C117.00,322.67 117.45,322.00 118.00,322.00 C118.55,322.00 119.00,321.31 119.00,320.47 C119.00,319.63 119.68,318.68 120.50,318.36 C121.32,318.05 122.00,317.21 122.00,316.51 C122.00,315.81 123.12,314.49 124.50,313.59 C125.88,312.69 127.00,311.38 127.00,310.68 C127.00,309.98 131.38,305.15 136.73,299.95 C145.13,291.79 146.63,289.82 147.77,285.50 C148.49,282.75 150.30,278.74 151.79,276.58 C153.35,274.32 155.51,272.06 158.02,269.95 C155.51,272.06 153.35,274.33 151.80,276.58 C150.32,278.74 148.54,282.75 147.85,285.50 C147.17,288.25 145.90,291.36 145.05,292.42 C144.20,293.48 144.00,294.05 144.62,293.69 C145.40,293.24 145.88,295.99 146.21,302.77 C146.74,313.70 148.01,317.05 153.46,321.83 C158.31,326.09 162.13,327.93 169.37,329.51 C177.48,331.27 182.07,331.27 190.50,329.49 ZM 356.99 184.50 C356.99,185.05 358.05,185.56 359.34,185.63 C363.39,185.87 364.46,178.95 364.31,153.29 C364.29,148.50 364.26,144.73 364.21,141.71 C364.33,144.20 364.44,147.15 364.56,150.71 L 365.27 170.92 L 369.89 170.21 C372.42,169.82 380.58,169.52 388.00,169.55 C402.30,169.60 405.36,170.37 410.85,175.37 C424.09,187.41 410.77,214.81 373.17,252.87 C367.05,259.07 360.65,265.08 354.00,270.89 L 354.00 266.01 C354.00,263.32 353.59,260.87 353.10,260.56 C352.60,260.25 350.85,262.38 349.21,265.28 C346.35,270.36 342.99,274.20 343.01,272.37 C343.02,271.89 343.68,269.33 344.48,266.69 L 345.94 261.87 L 341.07 265.45 C335.92,269.23 330.28,272.02 324.51,273.77 C335.43,270.43 345.24,263.41 350.58,253.77 L 353.50 248.50 L 354.40 188.52 C354.77,163.97 354.90,146.92 354.80,136.37 C354.93,141.99 355.01,148.80 355.02,155.99 C355.03,176.06 355.36,185.99 356.00,185.00 C356.53,184.18 356.98,183.95 356.99,184.50 ZM 242.00 212.49 C242.00,214.97 242.23,217.00 242.51,217.00 C242.79,217.00 248.30,214.00 254.76,210.33 C271.16,201.01 287.82,193.08 306.24,185.81 L 322.00 179.59 L 322.00 175.73 C322.00,174.26 322.17,173.24 321.74,172.78 C320.84,171.81 317.29,173.29 304.00,178.19 C291.68,182.74 253.06,200.96 245.25,205.91 C242.37,207.74 242.00,208.48 242.00,212.49 ZM 303.82 300.50 C303.44,300.12 303.38,299.17 303.68,298.40 C304.07,297.38 306.15,297.00 311.33,297.00 C318.03,297.00 318.32,297.09 316.24,298.55 C313.84,300.23 304.92,301.63 303.82,300.50 ZM 467.71 302.36 C468.97,302.04 470.00,301.25 470.00,300.59 C470.00,298.87 460.29,300.14 456.50,302.36 L 453.50 304.11 L 459.46 303.52 C462.74,303.20 466.45,302.67 467.71,302.36 ZM 210.07 358.79 C242.41,347.74 276.03,331.77 306.85,312.72 C275.82,332.21 243.80,347.42 210.07,358.79 ZM 333.57 189.49 L 333.54 227.95 L 332.34 227.73 C333.35,227.09 333.54,220.11 333.57,189.49 ZM 159.68 361.96 C145.38,363.86 132.64,362.98 123.41,359.68 C124.90,360.16 126.57,360.63 128.50,361.11 C136.59,363.12 148.48,363.45 159.68,361.96 C188.43,358.14 219.07,349.39 248.78,336.78 C219.39,349.35 189.09,358.05 159.68,361.96 ZM 510.00 303.00 C510.00,302.45 510.45,302.00 511.00,302.00 C511.55,302.00 512.00,302.45 512.00,303.00 C512.00,303.55 511.55,304.00 511.00,304.00 C510.45,304.00 510.00,303.55 510.00,303.00 ZM 95.97 363.33 C99.19,366.83 104.24,369.75 110.52,371.79 C104.12,369.93 99.25,367.10 95.97,363.33 ZM 174.68 309.21 C182.28,309.87 190.68,308.80 198.39,305.83 C190.89,308.83 182.67,310.05 174.68,309.21 ZM 198.31 165.52 C199.13,161.57 200.54,159.54 203.20,155.75 C204.65,153.70 205.64,152.86 206.04,153.17 C205.50,152.91 204.04,154.44 201.95,157.73 C200.21,160.49 199.05,162.63 198.31,165.52 ZM 154.52 277.56 C150.07,283.44 148.83,289.96 151.41,296.13 C151.70,296.81 152.03,297.47 152.41,298.10 C149.38,293.36 149.08,287.52 152.08,281.33 C152.68,280.09 153.51,278.82 154.52,277.56 ZM 182.64 261.36 C178.62,262.12 174.58,263.46 170.50,265.40 C169.61,265.82 168.74,266.26 167.91,266.71 C172.80,263.94 178.06,261.94 182.64,261.36 ZM 353.61 271.23 C346.78,277.17 339.69,282.90 332.39,288.40 C337.01,284.89 341.87,281.05 345.75,277.80 L 353.61 271.23 ZM 319.07 297.99 C317.44,299.11 315.80,300.23 314.15,301.33 C315.15,300.59 315.76,300.06 315.83,299.88 C316.02,299.40 316.61,299.00 317.15,299.00 C317.37,299.00 318.05,298.64 319.07,297.99 ZM 283.24 265.47 C285.40,267.95 288.65,270.20 293.00,272.25 C293.42,272.45 293.85,272.64 294.27,272.82 C293.80,272.62 293.33,272.42 292.87,272.20 C288.56,270.17 285.37,267.94 283.24,265.47 ZM 353.79 117.94 C353.82,117.86 353.85,117.80 353.89,117.76 C354.62,116.98 356.10,117.78 357.68,119.52 C355.93,117.61 354.40,116.97 353.79,117.94 ZM 354.21 123.35 C354.10,122.79 354.00,122.25 353.93,121.73 C353.95,121.83 353.98,121.93 354.01,122.03 C354.08,122.28 354.15,122.72 354.21,123.35 ZM 235.82 189.60 C235.85,189.59 235.88,189.58 235.90,189.57 C236.78,189.31 256.85,183.69 280.50,177.07 C257.28,183.57 237.44,189.13 235.82,189.60 ZM 300.97 298.25 C300.97,298.27 300.97,298.29 300.97,298.30 C300.97,298.46 300.85,298.68 300.63,298.96 C300.79,298.71 300.90,298.47 300.97,298.25 ZM 225.18 180.01 L 225.18 180.00 L 230.34 178.54 C233.49,177.65 252.21,172.37 272.05,166.78 C252.08,172.41 233.31,177.70 230.25,178.57 L 225.18 180.01 ZM -0.00 3.89 L -0.00 0.00 L 0.00 0.00 L -0.00 3.89 ZM 326.79 164.08 C327.31,163.93 327.79,163.82 328.23,163.75 C327.78,163.83 327.29,163.94 326.79,164.08 ZM 112.87 353.41 C112.77,353.31 112.68,353.21 112.58,353.11 C112.50,353.02 112.41,352.93 112.33,352.84 C112.41,352.93 112.48,353.01 112.56,353.09 C112.67,353.20 112.77,353.30 112.87,353.41 Z" fill="rgba(31,138,124,1)"/>
<path d="M 2.25 146.06 C5.22,148.53 5.68,148.49 12.59,145.11 C18.03,142.45 23.89,141.05 36.20,139.49 C39.44,139.08 41.80,139.36 43.82,140.41 C46.87,141.99 48.20,141.67 47.39,139.57 C47.06,138.71 47.80,138.46 49.86,138.77 C52.28,139.12 53.03,138.71 54.15,136.46 C54.89,134.95 55.84,133.75 56.26,133.79 C56.68,133.83 59.38,134.14 62.26,134.48 C66.33,134.96 68.73,134.61 73.00,132.94 C76.03,131.76 81.88,130.43 86.00,130.00 C97.26,128.81 108.00,126.86 108.00,125.99 C108.00,124.97 110.03,124.21 118.86,121.93 C122.91,120.88 126.71,120.32 127.30,120.69 C129.32,121.93 139.50,120.85 143.88,118.93 C146.28,117.87 149.58,117.00 151.19,117.00 C155.37,117.00 158.43,115.22 157.06,113.57 C156.23,112.58 156.61,112.29 158.75,112.29 C160.26,112.30 164.20,111.51 167.50,110.54 C174.01,108.63 174.21,108.61 178.21,109.57 C180.15,110.03 181.66,109.63 183.59,108.11 C185.22,106.82 187.72,106.00 189.98,106.00 C192.02,106.00 195.10,105.30 196.83,104.43 C202.46,101.63 205.78,101.03 207.07,102.58 C208.56,104.38 212.77,104.34 216.00,102.50 C217.38,101.71 220.04,101.05 221.92,101.04 C223.81,101.02 227.71,99.66 230.65,98.00 C233.58,96.35 236.99,94.99 238.23,94.98 C239.89,94.97 240.13,94.74 239.14,94.11 C236.66,92.53 246.33,89.64 251.88,90.30 C257.07,90.91 261.00,90.32 261.00,88.91 C261.00,88.45 260.21,88.34 259.25,88.68 C258.09,89.09 257.84,88.96 258.50,88.30 C259.05,87.75 262.65,86.55 266.50,85.63 C272.75,84.14 273.61,84.12 274.61,85.48 C276.11,87.54 276.90,87.40 279.44,84.66 C281.22,82.73 283.05,82.18 289.56,81.60 C295.38,81.08 298.43,80.27 301.00,78.55 C303.82,76.67 306.25,76.12 313.50,75.73 C320.29,75.36 323.94,74.60 328.35,72.63 C331.57,71.19 335.62,70.02 337.35,70.02 C344.50,70.02 355.99,68.42 357.15,67.25 C357.84,66.56 358.07,66.00 357.66,66.00 C357.26,66.00 357.41,65.10 358.00,64.00 C359.28,61.61 360.80,61.49 364.64,63.49 C368.08,65.29 371.94,65.40 377.13,63.84 C380.49,62.84 381.26,62.92 383.03,64.53 C384.95,66.27 385.40,66.28 391.28,64.79 C394.70,63.92 398.85,62.75 400.50,62.19 C402.15,61.62 405.75,60.65 408.50,60.02 C411.25,59.39 414.62,57.85 416.00,56.60 C419.78,53.15 431.39,49.64 436.64,50.36 C439.01,50.69 441.84,51.51 442.93,52.19 C444.54,53.19 445.56,53.10 448.48,51.71 C450.45,50.77 453.52,49.97 455.28,49.92 C459.47,49.82 465.47,47.64 465.62,46.16 C465.69,45.52 465.81,44.54 465.88,43.98 C465.95,43.36 469.59,43.03 475.25,43.14 C486.95,43.35 499.91,42.32 501.45,41.04 C502.10,40.50 504.09,39.95 505.87,39.81 C507.41,39.70 508.49,39.68 509.26,39.19 C511.20,37.96 511.21,33.71 511.66,17.25 L 512.00 4.81 L 512.00 78.05 C512.00,148.84 511.85,156.40 510.34,159.30 C509.43,161.06 508.50,161.96 508.27,161.30 C507.99,160.46 506.93,160.68 504.68,162.05 C500.59,164.55 497.42,164.51 492.54,161.89 C487.88,159.39 481.39,159.80 479.01,162.75 C477.76,164.29 476.15,164.61 469.90,164.56 C465.12,164.52 461.71,164.01 460.70,163.17 C459.74,162.37 458.22,162.11 456.92,162.52 C455.61,162.94 454.45,162.73 454.00,162.00 C453.43,161.07 451.25,161.02 444.87,161.76 C440.12,162.32 436.09,162.36 435.55,161.87 C435.03,161.39 433.99,161.00 433.24,161.00 C432.49,161.00 429.49,159.91 426.57,158.57 C418.35,154.81 413.56,153.84 406.99,154.58 C403.72,154.95 401.24,155.58 401.49,155.99 C401.62,156.20 402.52,156.45 403.84,156.68 C394.85,156.03 383.96,156.85 371.33,159.18 L 365.00 160.35 L 365.00 163.19 L 364.56 150.71 C363.91,132.23 363.64,130.06 361.42,125.30 C359.01,120.14 355.21,116.34 353.89,117.76 C353.51,118.17 353.67,120.76 354.25,123.52 C354.72,125.77 354.90,135.04 354.81,152.63 C354.72,136.25 354.36,122.86 353.66,120.50 C352.04,114.99 345.79,111.64 338.44,112.34 C335.65,112.60 315.18,117.78 292.94,123.85 C209.52,146.61 213.90,145.23 209.28,150.18 C207.88,151.69 206.84,152.91 206.08,155.01 C206.69,152.30 205.54,152.43 203.20,155.75 C197.60,163.72 197.56,163.95 196.83,190.50 C196.03,219.32 195.37,224.83 192.50,226.36 C191.40,226.95 188.63,228.68 186.34,230.21 C182.08,233.07 178.20,233.71 175.15,232.08 C174.05,231.49 171.30,231.66 167.47,232.55 C163.72,233.43 160.38,233.64 158.50,233.13 C155.07,232.20 145.85,233.14 141.68,234.85 C140.14,235.48 136.79,236.00 134.25,236.00 C131.17,236.00 128.94,236.62 127.56,237.85 C124.07,240.98 117.32,243.00 110.23,243.03 C105.90,243.05 102.81,243.59 101.56,244.53 C100.49,245.34 98.63,246.00 97.43,246.00 C96.23,246.00 94.73,246.63 94.09,247.39 C92.97,248.74 91.51,249.16 82.00,250.90 C76.59,251.88 74.35,252.74 70.85,255.16 C68.85,256.54 66.34,257.00 60.72,257.00 C55.54,257.00 51.91,257.59 48.88,258.92 C43.46,261.30 34.01,263.12 34.30,261.73 C34.65,260.03 32.30,259.85 30.69,261.46 C29.84,262.30 28.45,263.00 27.60,263.00 C26.75,263.00 24.13,263.86 21.78,264.90 C15.47,267.70 7.70,269.22 3.61,268.45 L 0.00 267.78 L 0.00 144.18 ZM 354.08 209.56 L 353.50 248.50 L 350.58 253.77 C340.13,272.64 312.56,281.49 293.00,272.25 C292.12,271.83 291.28,271.41 290.48,270.98 C291.34,270.74 293.94,268.82 296.51,266.51 C302.93,260.74 314.60,252.29 324.06,246.59 C328.36,243.99 335.08,238.49 339.98,233.55 C344.64,228.85 349.25,225.00 350.23,225.00 C351.20,225.00 352.00,224.52 352.00,223.94 C352.00,223.36 352.38,223.12 352.84,223.40 C353.34,223.71 353.76,218.19 354.08,209.56 ZM 224.17 270.17 C223.88,277.51 223.43,280.02 222.67,282.00 C221.72,284.48 220.85,286.87 220.72,287.33 C220.22,289.21 210.23,299.43 206.74,301.65 C194.55,309.39 178.47,311.15 166.58,307.74 C166.92,307.57 167.11,307.15 167.36,306.51 C167.67,305.70 170.12,303.56 172.81,301.76 C208.34,278.00 216.40,273.19 221.40,272.78 C223.04,272.64 223.72,272.08 224.17,270.17 ZM 234.16 198.82 C234.02,191.33 234.24,190.06 235.75,189.62 C236.71,189.33 256.85,183.69 280.50,177.07 C304.15,170.46 324.93,164.63 326.67,164.11 C328.42,163.60 330.11,163.44 330.42,163.76 C331.42,164.75 331.05,171.00 330.00,171.00 C329.45,171.00 329.00,170.32 329.00,169.50 C329.00,168.40 327.88,168.01 324.75,168.04 C316.23,168.11 278.51,180.47 265.60,187.42 C258.52,191.23 256.43,191.87 249.00,192.47 C239.80,193.22 237.00,194.67 237.00,198.65 C237.00,199.94 236.58,201.00 236.06,201.00 C235.55,201.00 234.95,202.46 234.72,204.25 C234.50,206.04 234.25,203.59 234.16,198.82 ZM 241.01 330.15 C241.01,329.34 243.86,327.69 262.00,318.02 C269.98,313.77 281.53,307.30 287.69,303.65 C289.34,302.66 290.94,301.73 292.42,300.89 C289.09,303.04 286.00,305.34 286.37,305.71 C286.71,306.04 286.42,306.99 285.74,307.81 C284.75,309.01 288.09,307.50 292.37,304.99 C292.09,305.17 291.82,305.34 291.57,305.50 C281.78,311.66 265.39,321.28 260.33,323.83 C254.14,326.95 241.00,331.25 241.01,330.15 ZM 140.03 374.27 C165.42,372.61 197.38,364.31 230.25,351.32 C203.88,361.81 177.78,369.34 154.10,372.94 C150.08,373.55 145.06,374.01 140.03,374.27 ZM 320.04 304.26 C355.33,280.47 389.09,250.88 410.12,225.19 C394.80,243.94 372.63,264.93 345.48,286.00 C337.36,292.30 328.85,298.40 320.04,304.26 ZM 433.24 183.11 C433.67,179.71 433.45,176.61 432.61,173.74 C430.05,164.94 422.25,159.44 409.83,157.38 C425.74,159.24 435.15,169.62 433.24,183.11 ZM 225.18 180.01 L 224.99 202.98 L 225.00 180.06 L 225.18 180.01 ZM 204.15 176.84 C204.33,163.74 204.71,159.24 205.46,157.13 C205.48,157.04 205.51,156.97 205.54,156.89 C204.70,160.45 204.32,166.15 204.15,176.84 ZM 287.04 241.78 C292.85,235.36 301.51,230.45 310.75,228.11 C305.39,229.48 300.12,231.77 295.29,234.89 C292.08,236.97 289.30,239.31 287.04,241.78 ZM 281.46 262.93 C279.88,260.04 279.58,256.83 280.52,253.24 C279.69,256.68 279.96,260.02 281.46,262.93 ZM 299.86 297.01 C299.89,297.00 299.92,297.00 299.94,297.00 C302.10,297.00 300.90,299.63 297.87,301.53 C297.86,301.54 297.86,301.54 297.85,301.55 C301.00,299.29 302.03,297.07 299.86,297.01 ZM 161.50 305.84 C161.51,305.85 161.53,305.85 161.54,305.86 C159.01,304.67 156.79,303.17 155.01,301.39 C156.65,302.99 158.77,304.43 161.50,305.84 ZM 417.73 215.27 C418.54,214.13 419.32,213.01 420.07,211.89 C421.53,209.73 422.86,207.64 424.08,205.64 C422.22,208.75 420.10,211.97 417.73,215.27 ZM 119.87 374.00 C121.51,374.26 124.34,374.44 127.51,374.52 C124.39,374.47 121.72,374.29 119.87,374.00 ZM 365.27 170.92 L 369.75 170.23 C369.84,170.22 369.93,170.20 370.03,170.19 C369.98,170.20 369.93,170.21 369.89,170.21 L 365.27 170.92 L 365.27 170.92 Z" fill="rgba(41,173,135,1)"/>
<path d="M 2.25 146.06 L 0.00 144.18 L 0.00 15.18 C0.00,30.32 0.01,30.40 2.69,33.20 C6.10,36.76 7.11,36.72 11.59,32.79 C14.93,29.85 15.78,29.59 21.37,29.76 C24.92,29.87 29.44,29.26 32.11,28.32 C35.80,27.03 37.36,26.93 39.95,27.83 C42.58,28.75 44.54,28.60 50.42,27.02 C54.39,25.96 58.88,24.62 60.39,24.04 C61.90,23.47 65.44,23.00 68.25,23.00 C73.08,23.00 79.59,22.08 90.00,19.94 C92.47,19.43 97.84,18.75 101.92,18.42 C106.00,18.09 110.39,17.42 111.67,16.93 C112.96,16.45 117.72,15.76 122.25,15.40 C126.79,15.05 131.95,14.09 133.73,13.27 C136.18,12.15 138.84,11.95 144.73,12.46 C151.67,13.06 153.25,12.85 159.50,10.47 C166.01,8.00 167.87,7.79 185.97,7.39 C196.67,7.16 205.83,6.57 206.31,6.09 C206.81,5.59 206.73,4.37 206.13,3.24 C205.55,2.15 205.34,0.99 205.68,0.66 C206.01,0.32 159.87,0.03 103.14,0.01 L 64.19 0.00 L 512.13 0.00 L 511.66 17.25 C511.21,33.71 511.20,37.96 509.26,39.19 C508.49,39.68 507.41,39.70 505.87,39.81 C504.09,39.95 502.10,40.50 501.45,41.04 C499.91,42.32 486.95,43.35 475.25,43.14 C469.59,43.03 465.95,43.36 465.88,43.98 C465.81,44.54 465.69,45.52 465.62,46.16 C465.47,47.64 459.47,49.82 455.28,49.92 C453.52,49.97 450.45,50.77 448.48,51.71 C445.56,53.10 444.54,53.19 442.93,52.19 C441.84,51.51 439.01,50.69 436.64,50.36 C431.39,49.64 419.78,53.15 416.00,56.60 C414.62,57.85 411.25,59.39 408.50,60.02 C405.75,60.65 402.15,61.62 400.50,62.19 C398.85,62.75 394.70,63.92 391.28,64.79 C385.40,66.28 384.95,66.27 383.03,64.53 C381.26,62.92 380.49,62.84 377.13,63.84 C371.94,65.40 368.08,65.29 364.64,63.49 C360.80,61.49 359.28,61.61 358.00,64.00 C357.41,65.10 357.26,66.00 357.66,66.00 C358.07,66.00 357.84,66.56 357.15,67.25 C355.99,68.42 344.50,70.02 337.35,70.02 C335.62,70.02 331.57,71.19 328.35,72.63 C323.94,74.60 320.29,75.36 313.50,75.73 C306.25,76.12 303.82,76.67 301.00,78.55 C298.43,80.27 295.38,81.08 289.56,81.60 C283.05,82.18 281.22,82.73 279.44,84.66 C276.90,87.40 276.11,87.54 274.61,85.48 C273.61,84.12 272.75,84.14 266.50,85.63 C262.65,86.55 259.05,87.75 258.50,88.30 C257.84,88.96 258.09,89.09 259.25,88.68 C260.21,88.34 261.00,88.45 261.00,88.91 C261.00,90.32 257.07,90.91 251.88,90.30 C246.33,89.64 236.66,92.53 239.14,94.11 C240.13,94.74 239.89,94.97 238.23,94.98 C236.99,94.99 233.58,96.35 230.65,98.00 C227.71,99.66 223.81,101.02 221.92,101.04 C220.04,101.05 217.38,101.71 216.00,102.50 C212.77,104.34 208.56,104.38 207.07,102.58 C205.78,101.03 202.46,101.63 196.83,104.43 C195.10,105.30 192.02,106.00 189.98,106.00 C187.72,106.00 185.22,106.82 183.59,108.11 C181.66,109.63 180.15,110.03 178.21,109.57 C174.21,108.61 174.01,108.63 167.50,110.54 C164.20,111.51 160.26,112.30 158.75,112.29 C156.61,112.29 156.23,112.58 157.06,113.57 C158.43,115.22 155.37,117.00 151.19,117.00 C149.58,117.00 146.28,117.87 143.88,118.93 C139.50,120.85 129.32,121.93 127.30,120.69 C126.71,120.32 122.91,120.88 118.86,121.93 C110.03,124.21 108.00,124.97 108.00,125.99 C108.00,126.86 97.26,128.81 86.00,130.00 C81.88,130.43 76.03,131.76 73.00,132.94 C68.73,134.61 66.33,134.96 62.26,134.48 C59.38,134.14 56.68,133.83 56.26,133.79 C55.84,133.75 54.89,134.95 54.15,136.46 C53.03,138.71 52.28,139.12 49.86,138.77 C47.80,138.46 47.06,138.71 47.39,139.57 C48.20,141.67 46.87,141.99 43.82,140.41 C41.80,139.36 39.44,139.08 36.20,139.49 C23.89,141.05 18.03,142.45 12.59,145.11 C5.68,148.49 5.22,148.53 2.25,146.06 ZM 285.74 307.81 C286.42,306.99 286.71,306.04 286.37,305.71 C285.66,304.99 297.91,297.02 299.75,297.01 C302.20,296.99 300.91,299.54 297.24,301.97 C291.07,306.05 284.39,309.44 285.74,307.81 Z" fill="rgba(51,196,142,1)"/>
<path d="M 119.87 374.00 C107.47,372.02 97.84,367.07 93.94,360.67 C83.71,343.84 104.23,313.47 154.50,271.05 C169.21,258.64 193.15,240.00 194.38,240.00 C194.72,240.00 195.00,242.20 195.00,244.88 C195.00,249.53 194.76,249.96 189.75,254.22 C185.70,257.67 183.41,258.83 179.72,259.33 C170.29,260.60 157.28,268.63 151.79,276.58 C150.30,278.74 148.49,282.75 147.77,285.50 C146.63,289.82 145.13,291.79 136.73,299.95 C131.38,305.15 127.00,309.98 127.00,310.68 C127.00,311.38 125.88,312.69 124.50,313.59 C123.12,314.49 122.00,315.81 122.00,316.51 C122.00,317.21 121.32,318.05 120.50,318.36 C119.68,318.68 119.00,319.63 119.00,320.47 C119.00,321.31 118.55,322.00 118.00,322.00 C117.45,322.00 117.00,322.67 117.00,323.50 C117.00,324.33 116.55,325.00 116.00,325.00 C115.45,325.00 115.00,325.67 115.00,326.50 C115.00,327.33 114.52,328.00 113.94,328.00 C113.36,328.00 113.16,328.45 113.50,329.00 C113.84,329.55 113.61,330.00 113.00,330.00 C112.39,330.00 112.16,330.45 112.50,331.00 C112.84,331.55 112.61,332.00 112.00,332.00 C111.39,332.00 111.16,332.45 111.50,333.00 C111.84,333.55 111.64,334.00 111.06,334.00 C110.48,334.00 110.07,334.34 110.16,334.75 C110.25,335.16 109.97,336.30 109.54,337.29 C109.11,338.27 108.96,341.54 109.21,344.56 C109.57,348.89 110.28,350.69 112.58,353.11 C120.49,361.44 138.36,364.79 159.68,361.96 C235.09,351.94 316.32,310.44 373.17,252.87 C410.77,214.81 424.09,187.41 410.85,175.37 C405.36,170.37 402.30,169.60 388.00,169.55 C380.58,169.52 372.36,169.83 369.75,170.23 L 365.00 170.96 L 365.00 160.35 L 371.33 159.18 C406.34,152.73 428.00,157.87 432.61,173.74 C435.35,183.15 431.48,194.93 420.07,211.89 C397.27,245.80 345.01,290.97 295.00,319.98 C240.85,351.40 178.40,372.82 136.10,374.48 C130.27,374.71 122.97,374.49 119.87,374.00 ZM 2.69 33.20 C0.01,30.40 0.00,30.32 0.00,15.18 L 0.00 -0.02 L 103.14 0.01 C159.87,0.03 206.01,0.32 205.68,0.66 C205.34,0.99 205.55,2.15 206.13,3.24 C206.73,4.37 206.81,5.59 206.31,6.09 C205.83,6.57 196.67,7.16 185.97,7.39 C167.87,7.79 166.01,8.00 159.50,10.47 C153.25,12.85 151.67,13.06 144.73,12.46 C138.84,11.95 136.18,12.15 133.73,13.27 C131.95,14.09 126.79,15.05 122.25,15.40 C117.72,15.76 112.96,16.45 111.67,16.93 C110.39,17.42 106.00,18.09 101.92,18.42 C97.84,18.75 92.47,19.43 90.00,19.94 C79.59,22.08 73.08,23.00 68.25,23.00 C65.44,23.00 61.90,23.47 60.39,24.04 C58.88,24.62 54.39,25.96 50.42,27.02 C44.54,28.60 42.58,28.75 39.95,27.83 C37.36,26.93 35.80,27.03 32.11,28.32 C29.44,29.26 24.92,29.87 21.37,29.76 C15.78,29.59 14.93,29.85 11.59,32.79 C7.11,36.72 6.10,36.76 2.69,33.20 ZM 242.00 212.49 C242.00,208.48 242.37,207.74 245.25,205.91 C253.06,200.96 291.68,182.74 304.00,178.19 C317.29,173.29 320.84,171.81 321.74,172.78 C322.17,173.24 322.00,174.26 322.00,175.73 L 322.00 179.59 L 306.24 185.81 C287.82,193.08 271.16,201.01 254.76,210.33 C248.30,214.00 242.79,217.00 242.51,217.00 C242.23,217.00 242.00,214.97 242.00,212.49 Z" fill="rgba(65,225,146,1)"/>
<path d="M 332.59 150.02 C332.66,150.02 332.71,150.01 332.75,150.01 C333.72,150.00 334.02,155.75 334.08,175.25 C334.12,189.14 334.42,199.85 334.73,199.05 C335.37,197.42 336.62,195.80 339.34,193.04 C341.58,190.78 352.51,184.85 353.20,185.53 C353.71,186.04 354.50,167.69 354.80,151.60 C354.98,182.29 354.19,224.23 352.84,223.40 C352.38,223.12 352.00,223.36 352.00,223.94 C352.00,224.52 351.20,225.00 350.23,225.00 C349.25,225.00 344.64,228.85 339.98,233.55 C335.08,238.49 328.36,243.99 324.06,246.59 C314.60,252.29 302.93,260.74 296.51,266.51 C293.76,268.98 290.98,271.00 290.33,271.00 C288.50,271.00 283.09,266.08 281.46,262.93 C280.45,260.97 280.00,258.81 280.06,256.56 C280.21,257.37 280.57,257.77 281.00,257.50 C281.55,257.16 282.00,256.28 282.00,255.53 C282.00,253.79 289.83,246.78 300.67,238.82 C305.40,235.34 310.67,231.29 312.39,229.81 L 315.48 227.14 C320.26,226.41 325.03,226.41 329.52,227.22 L 333.54 227.95 L 333.57 188.97 C333.59,162.92 333.28,150.50 332.59,150.02 ZM 161.50 305.84 C156.96,303.49 154.12,301.08 152.33,297.98 L 154.12 295.04 C155.18,293.30 162.23,287.90 171.21,281.94 C179.62,276.36 188.07,270.32 190.00,268.51 C191.93,266.71 194.85,264.54 196.50,263.69 C198.63,262.60 199.07,262.01 198.00,261.66 C196.79,261.27 195.51,260.99 194.16,260.80 C194.83,260.87 195.51,260.95 196.18,261.05 C199.66,261.55 202.84,261.97 203.25,261.98 C203.66,261.99 204.00,239.33 204.00,211.63 C204.00,211.39 204.00,211.16 204.00,210.93 C204.00,245.02 204.33,260.00 205.07,260.00 C205.65,260.00 207.57,258.94 209.32,257.63 C211.07,256.33 214.75,254.45 217.50,253.46 C220.25,252.47 223.06,251.23 223.75,250.71 C224.60,250.06 224.93,243.36 224.99,223.06 C224.98,246.44 224.71,267.10 224.39,269.04 C223.92,271.87 223.32,272.62 221.40,272.78 C216.40,273.19 208.34,278.00 172.81,301.76 C170.12,303.56 167.67,305.70 167.36,306.51 C166.64,308.39 166.36,308.36 161.50,305.84 ZM 280.83 252.08 C281.91,248.56 284.09,244.95 287.21,241.59 C284.51,244.74 282.06,248.80 280.83,252.08 ZM 293.34 236.22 C293.97,235.77 294.62,235.32 295.29,234.89 C301.46,230.90 308.36,228.28 315.23,227.18 L 311.00 228.09 C305.80,229.20 298.68,232.55 293.34,236.22 ZM 353.88 121.65 C352.94,117.57 351.20,115.84 347.99,114.18 C346.74,113.53 345.67,113.06 344.64,112.75 C349.11,113.83 352.52,116.63 353.66,120.50 C353.74,120.76 353.81,121.14 353.88,121.65 ZM 166.18 267.67 C167.54,266.88 168.98,266.12 170.50,265.40 C175.20,263.17 179.85,261.72 184.47,261.05 C178.31,262.03 171.82,264.40 166.18,267.67 ZM 151.16 295.45 L 152.25 297.84 C151.94,297.29 151.66,296.72 151.41,296.13 C151.29,295.84 151.18,295.55 151.08,295.26 C151.10,295.33 151.13,295.39 151.16,295.45 ZM 150.15 288.08 C150.24,287.11 150.41,286.14 150.67,285.17 C150.42,286.14 150.25,287.12 150.15,288.08 ZM 209.28 150.18 C207.79,151.79 206.71,153.08 205.94,155.42 C206.71,153.07 207.79,151.79 209.28,150.18 Z" fill="rgba(103,149,130,1)"/>
<path d="M 332.75 150.01 C333.53,150.00 334.01,151.42 334.02,153.75 C334.02,155.81 334.36,157.05 334.77,156.49 C335.17,155.94 337.40,154.25 339.73,152.74 C342.05,151.24 344.67,148.91 345.54,147.58 C346.42,146.24 348.45,144.69 350.07,144.13 C352.71,143.20 353.02,143.32 353.19,145.30 C353.29,146.51 353.63,142.32 353.95,136.00 C354.73,120.55 353.81,117.20 347.98,114.18 C346.22,113.26 344.83,112.71 343.38,112.43 C344.83,112.71 346.22,113.26 347.99,114.18 C353.87,117.22 354.82,120.49 354.92,138.00 C355.01,154.58 353.86,186.20 353.20,185.53 C352.51,184.85 341.58,190.78 339.34,193.04 C336.62,195.80 335.37,197.42 334.73,199.05 C334.42,199.85 334.12,189.14 334.08,175.25 C334.02,155.75 333.72,150.00 332.75,150.01 ZM 151.16 295.45 C149.40,291.60 149.76,286.12 152.08,281.33 C158.64,267.78 183.78,257.01 198.00,261.66 C199.07,262.01 198.63,262.60 196.50,263.69 C194.85,264.54 191.93,266.71 190.00,268.51 C188.07,270.32 179.62,276.36 171.21,281.94 C162.23,287.90 155.18,293.30 154.12,295.04 L 152.32 298.00 ZM 204.05 231.04 L 207.73 228.54 C209.78,227.14 211.96,226.00 212.56,226.00 C213.16,226.00 214.71,224.88 216.00,223.50 C217.29,222.12 219.13,221.00 220.09,221.00 C221.45,221.00 222.43,221.01 223.14,220.57 C224.98,219.44 225.00,215.34 225.00,200.52 L 225.00 214.91 C225.00,241.61 224.71,249.98 223.75,250.71 C223.06,251.23 220.25,252.47 217.50,253.46 C214.75,254.45 211.07,256.33 209.32,257.63 C207.57,258.94 205.65,260.00 205.07,260.00 C204.49,260.00 204.17,250.99 204.05,231.04 ZM 280.00 255.76 C280.00,251.73 284.95,243.21 289.74,239.00 C295.03,234.35 304.51,229.48 311.00,228.09 L 315.50 227.12 L 312.39 229.81 C310.67,231.29 305.40,235.34 300.67,238.82 C289.83,246.78 282.00,253.79 282.00,255.53 C282.00,256.28 281.55,257.16 281.00,257.50 C280.44,257.85 280.00,257.08 280.00,255.76 ZM 209.28 150.18 C207.70,151.88 206.59,153.36 205.81,155.85 C206.59,153.23 207.70,151.88 209.28,150.18 Z" fill="rgba(168,130,115,1)"/>
<path d="M 204.00 196.16 C204.00,158.68 204.37,155.45 209.28,150.18 C213.90,145.23 209.52,146.61 292.94,123.85 C315.18,117.78 335.65,112.60 338.44,112.34 C342.42,111.96 344.45,112.35 347.98,114.18 C353.81,117.20 354.73,120.55 353.95,136.00 C353.63,142.32 353.29,146.51 353.19,145.30 C353.02,143.32 352.71,143.20 350.07,144.13 C348.45,144.69 346.42,146.24 345.54,147.58 C344.67,148.91 342.05,151.24 339.73,152.74 C337.40,154.25 335.17,155.94 334.77,156.49 C334.36,157.05 334.02,155.81 334.02,153.75 C334.01,151.42 333.53,150.00 332.75,150.01 C332.06,150.02 326.10,151.54 319.50,153.40 C301.22,158.55 236.19,176.89 230.25,178.57 L 225.00 180.06 L 225.00 199.92 C225.00,221.07 225.02,221.00 220.09,221.00 C219.13,221.00 217.29,222.12 216.00,223.50 C214.71,224.88 213.16,226.00 212.56,226.00 C211.96,226.00 209.78,227.14 207.73,228.54 L 204.00 231.07 L 204.00 196.16 Z" fill="rgba(245,115,94,1)"/>
</g>
</svg>